<?xml version="1.0" encoding="UTF-8" standalone="no"?>
<!-- Created with Inkscape (http://www.inkscape.org/) -->

<svg
   xmlns:dc="http://purl.org/dc/elements/1.1/"
   xmlns:cc="http://creativecommons.org/ns#"
   xmlns:rdf="http://www.w3.org/1999/02/22-rdf-syntax-ns#"
   xmlns:svg="http://www.w3.org/2000/svg"
   xmlns="http://www.w3.org/2000/svg"
   xmlns:sodipodi="http://sodipodi.sourceforge.net/DTD/sodipodi-0.dtd"
   xmlns:inkscape="http://www.inkscape.org/namespaces/inkscape"
   width="744.09448819"
   height="1052.3622047"
   id="svg3022"
   version="1.1"
   inkscape:version="0.48.4 r9939"
   sodipodi:docname="flow3.svg">
  <defs
     id="defs3024">
    <clipPath
       id="clipPath4442"
       clipPathUnits="userSpaceOnUse">
      <path
         id="path4444"
         d="m 14.29,14.29 273.71,0 0,273.71 -273.71,0 0,-273.71 z" />
    </clipPath>
    <clipPath
       id="clipPath4610"
       clipPathUnits="userSpaceOnUse">
      <path
         id="path4612"
         d="m 21.49,21.49 252.11,0 0,252.11 -252.11,0 0,-252.11 z" />
    </clipPath>
    <clipPath
       id="clipPath9863"
       clipPathUnits="userSpaceOnUse">
      <path
         id="path9865"
         d="m 14.4,14.4 475.2,0 0,475.2 -475.2,0 0,-475.2 z" />
    </clipPath>
    <clipPath
       id="clipPath12031"
       clipPathUnits="userSpaceOnUse">
      <path
         id="path12033"
         d="m 14.29,14.29 273.71,0 0,273.71 -273.71,0 0,-273.71 z" />
    </clipPath>
    <clipPath
       id="clipPath12300"
       clipPathUnits="userSpaceOnUse">
      <path
         id="path12302"
         d="m 14.4,14.4 475.2,0 0,475.2 -475.2,0 0,-475.2 z" />
    </clipPath>
  </defs>
  <sodipodi:namedview
     id="base"
     pagecolor="#ffffff"
     bordercolor="#666666"
     borderopacity="1.0"
     inkscape:pageopacity="0.0"
     inkscape:pageshadow="2"
     inkscape:zoom="1.5213122"
     inkscape:cx="372.04724"
     inkscape:cy="800.92326"
     inkscape:document-units="px"
     inkscape:current-layer="layer1"
     showgrid="false"
     inkscape:window-width="1535"
     inkscape:window-height="876"
     inkscape:window-x="65"
     inkscape:window-y="24"
     inkscape:window-maximized="1" />
  <metadata
     id="metadata3027">
    <rdf:RDF>
      <cc:Work
         rdf:about="">
        <dc:format>image/svg+xml</dc:format>
        <dc:type
           rdf:resource="http://purl.org/dc/dcmitype/StillImage" />
        <dc:title></dc:title>
      </cc:Work>
    </rdf:RDF>
  </metadata>
  <g
     inkscape:label="Layer 1"
     inkscape:groupmode="layer"
     id="layer1">
    <path
       sodipodi:type="star"
       style="fill:#f46d43;stroke:none;stroke-width:9;stroke-miterlimit:4;stroke-opacity:1;stroke-dasharray:none;fill-opacity:1"
       id="path12387"
       sodipodi:sides="6"
       sodipodi:cx="32.044945"
       sodipodi:cy="83.953087"
       sodipodi:r1="258.04898"
       sodipodi:r2="223.47697"
       sodipodi:arg1="0.58158121"
       sodipodi:arg2="1.10518"
       inkscape:flatsided="true"
       inkscape:rounded="0"
       inkscape:randomized="0"
       d="M 247.6694,225.71123 17.091019,341.56841 -198.53344,199.81027 -183.57951,-57.805056 46.99887,-173.66224 262.62332,-31.904097 z"
       transform="matrix(0.37198272,-0.02475929,0.02475929,0.37198272,340.8039,250.30437)" />
    <path
       sodipodi:type="star"
       style="fill:#000000;fill-opacity:0;stroke:#f46d43;stroke-width:9;stroke-miterlimit:4;stroke-opacity:1;stroke-dasharray:none"
       id="path6203"
       sodipodi:sides="6"
       sodipodi:cx="32.044945"
       sodipodi:cy="83.953087"
       sodipodi:r1="258.04898"
       sodipodi:r2="223.47697"
       sodipodi:arg1="0.58158121"
       sodipodi:arg2="1.10518"
       inkscape:flatsided="true"
       inkscape:rounded="0"
       inkscape:randomized="0"
       d="M 247.6694,225.71123 17.091019,341.56841 -198.53344,199.81027 -183.57951,-57.805056 46.99887,-173.66224 262.62332,-31.904097 z"
       transform="matrix(0.37198272,-0.02475929,0.02475929,0.37198272,258.03131,105.03504)" />
    <path
       sodipodi:type="arc"
       style="fill:none;stroke:#cdcd00;stroke-width:21.67857933000000159;stroke-miterlimit:4;stroke-opacity:1;stroke-dasharray:none;stroke-dashoffset:0"
       id="path2985"
       sodipodi:cx="398.11771"
       sodipodi:cy="567.34296"
       sodipodi:rx="147.55418"
       sodipodi:ry="147.55418"
       d="M 398.11771,714.89714 A 147.55418,147.55418 0 1 1 502.45427,671.67952"
       transform="matrix(-0.42992416,0,0,-0.42992416,525.42954,523.89645)"
       sodipodi:start="1.5707963"
       sodipodi:end="7.0685835"
       sodipodi:open="true" />
    <path
       style="fill:#cdcd00;fill-opacity:1;stroke:none"
       d="m 294.49004,230.18435 26.51541,-5.60566 -4.33234,25.50247 z"
       id="path3763"
       inkscape:connector-curvature="0" />
    <path
       transform="matrix(0.37198272,-0.02475929,0.02475929,0.37198272,424.94179,105.03504)"
       d="M 247.6694,225.71123 17.091019,341.56841 -198.53344,199.81027 -183.57951,-57.805056 46.99887,-173.66224 262.62332,-31.904097 z"
       inkscape:randomized="0"
       inkscape:rounded="0"
       inkscape:flatsided="true"
       sodipodi:arg2="1.10518"
       sodipodi:arg1="0.58158121"
       sodipodi:r2="223.47697"
       sodipodi:r1="258.04898"
       sodipodi:cy="83.953087"
       sodipodi:cx="32.044945"
       sodipodi:sides="6"
       id="path3977"
       style="fill:none;fill-opacity:0;stroke:#f46d43;stroke-width:9;stroke-miterlimit:4;stroke-opacity:1;stroke-dasharray:none"
       sodipodi:type="star" />
    <path
       sodipodi:type="star"
       style="fill:#000000;fill-opacity:0;stroke:#f46d43;stroke-width:9;stroke-miterlimit:4;stroke-opacity:1;stroke-dasharray:none"
       id="path3979"
       sodipodi:sides="6"
       sodipodi:cx="32.044945"
       sodipodi:cy="83.953087"
       sodipodi:r1="258.04898"
       sodipodi:r2="223.47697"
       sodipodi:arg1="0.58158121"
       sodipodi:arg2="1.10518"
       inkscape:flatsided="true"
       inkscape:rounded="0"
       inkscape:randomized="0"
       d="M 247.6694,225.71123 17.091019,341.56841 -198.53344,199.81027 -183.57951,-57.805056 46.99887,-173.66224 262.62332,-31.904097 z"
       transform="matrix(0.37198272,-0.02475929,0.02475929,0.37198272,507.62197,249.54632)" />
    <path
       transform="matrix(0.37198272,-0.02475929,0.02475929,0.37198272,424.94179,394.39126)"
       d="M 247.6694,225.71123 17.091019,341.56841 -198.53344,199.81027 -183.57951,-57.805056 46.99887,-173.66224 262.62332,-31.904097 z"
       inkscape:randomized="0"
       inkscape:rounded="0"
       inkscape:flatsided="true"
       sodipodi:arg2="1.10518"
       sodipodi:arg1="0.58158121"
       sodipodi:r2="223.47697"
       sodipodi:r1="258.04898"
       sodipodi:cy="83.953087"
       sodipodi:cx="32.044945"
       sodipodi:sides="6"
       id="path3981"
       style="fill:#000000;fill-opacity:0;stroke:#f46d43;stroke-width:9;stroke-miterlimit:4;stroke-opacity:1;stroke-dasharray:none"
       sodipodi:type="star" />
    <path
       sodipodi:type="star"
       style="fill:#000000;fill-opacity:0;stroke:#f46d43;stroke-width:9;stroke-miterlimit:4;stroke-opacity:1;stroke-dasharray:none"
       id="path3983"
       sodipodi:sides="6"
       sodipodi:cx="32.044945"
       sodipodi:cy="83.953087"
       sodipodi:r1="258.04898"
       sodipodi:r2="223.47697"
       sodipodi:arg1="0.58158121"
       sodipodi:arg2="1.10518"
       inkscape:flatsided="true"
       inkscape:rounded="0"
       inkscape:randomized="0"
       d="M 247.6694,225.71123 17.091019,341.56841 -198.53344,199.81027 -183.57951,-57.805056 46.99887,-173.66224 262.62332,-31.904097 z"
       transform="matrix(0.37198272,-0.02475929,0.02475929,0.37198272,258.03131,394.6508)" />
    <path
       transform="matrix(0.37198272,-0.02475929,0.02475929,0.37198272,175.27377,249.54632)"
       d="M 247.6694,225.71123 17.091019,341.56841 -198.53344,199.81027 -183.57951,-57.805056 46.99887,-173.66224 262.62332,-31.904097 z"
       inkscape:randomized="0"
       inkscape:rounded="0"
       inkscape:flatsided="true"
       sodipodi:arg2="1.10518"
       sodipodi:arg1="0.58158121"
       sodipodi:r2="223.47697"
       sodipodi:r1="258.04898"
       sodipodi:cy="83.953087"
       sodipodi:cx="32.044945"
       sodipodi:sides="6"
       id="path3985"
       style="fill:#000000;fill-opacity:0;stroke:#f46d43;stroke-width:9;stroke-miterlimit:4;stroke-opacity:1;stroke-dasharray:none"
       sodipodi:type="star" />
    <g
       id="g9757">
      <path
         sodipodi:type="arc"
         style="fill:#3288bd;fill-opacity:1;stroke:none"
         id="path4025"
         sodipodi:cx="-312.13715"
         sodipodi:cy="382.63104"
         sodipodi:rx="31.31473"
         sodipodi:ry="31.31473"
         d="m -280.82242,382.63104 a 31.31473,31.31473 0 1 1 -62.62946,0 31.31473,31.31473 0 1 1 62.62946,0 z"
         transform="matrix(0.64257732,0,0,0.64257732,818.28345,83.719708)" />
      <flowRoot
         xml:space="preserve"
         id="flowRoot4027"
         style="font-size:50px;font-style:normal;font-variant:normal;font-weight:600;font-stretch:normal;line-height:125%;letter-spacing:0px;word-spacing:0px;fill:#ffffff;fill-opacity:1;stroke:none;font-family:Latin Modern Sans Demi Cond;-inkscape-font-specification:Latin Modern Sans Demi Cond Semi-Bold"
         transform="matrix(0.3728058,0,0,0.3728058,286.40335,288.01801)"><flowRegion
           id="flowRegion4029"><rect
             id="rect4031"
             width="54.548237"
             height="58.588848"
             x="876.81244"
             y="78.575127"
             style="font-size:50px;font-style:normal;font-variant:normal;font-weight:600;font-stretch:normal;fill:#ffffff;font-family:Latin Modern Sans Demi Cond;-inkscape-font-specification:Latin Modern Sans Demi Cond Semi-Bold" /></flowRegion><flowPara
           id="flowPara4033"
           style="font-size:50px;font-style:normal;font-variant:normal;font-weight:600;font-stretch:normal;fill:#ffffff;font-family:Latin Modern Sans Demi Cond;-inkscape-font-specification:Latin Modern Sans Demi Cond Semi-Bold">2</flowPara></flowRoot>    </g>
    <flowRoot
       xml:space="preserve"
       id="flowRoot4177"
       style="font-size:12px;font-style:normal;font-variant:normal;font-weight:bold;font-stretch:normal;text-align:center;line-height:125%;letter-spacing:0px;word-spacing:0px;text-anchor:middle;fill:#000000;fill-opacity:1;stroke:none;font-family:Cooper Hewitt;-inkscape-font-specification:Cooper Hewitt Bold"
       transform="translate(-9.971982,20.7694)"><flowRegion
         id="flowRegion4179"><rect
           id="rect4181"
           width="157.10124"
           height="53.243492"
           x="368.76059"
           y="148.53717"
           style="text-align:center;text-anchor:middle" /></flowRegion><flowPara
         id="flowPara4183"
         style="font-size:14px;font-weight:normal;text-align:center;text-anchor:middle;font-family:Liberation Sans;-inkscape-font-specification:Liberation Sans">Fit model of trait evolution </flowPara></flowRoot>    <flowRoot
       transform="translate(74.137892,166.03873)"
       style="font-size:12px;font-style:normal;font-variant:normal;font-weight:bold;font-stretch:normal;text-align:center;line-height:125%;letter-spacing:0px;word-spacing:0px;text-anchor:middle;fill:#000000;fill-opacity:1;stroke:none;font-family:Cooper Hewitt;-inkscape-font-specification:Cooper Hewitt Bold"
       id="flowRoot4272"
       xml:space="preserve"><flowRegion
         id="flowRegion4274"><rect
           style="text-align:center;text-anchor:middle"
           y="148.53717"
           x="368.76059"
           height="53.243492"
           width="157.10124"
           id="rect4276" /></flowRegion><flowPara
         style="font-size:14px;font-weight:normal;text-align:center;text-anchor:middle;font-family:Liberation Sans;-inkscape-font-specification:Liberation Sans"
         id="flowPara4278">Construct unit tree from</flowPara><flowPara
         style="font-size:14px;font-weight:normal;text-align:center;text-anchor:middle;font-family:Liberation Sans;-inkscape-font-specification:Liberation Sans"
         id="flowPara4280">model pars </flowPara></flowRoot>    <flowRoot
       xml:space="preserve"
       id="flowRoot4282"
       style="font-size:12px;font-style:normal;font-variant:normal;font-weight:bold;font-stretch:normal;text-align:center;line-height:125%;letter-spacing:0px;word-spacing:0px;text-anchor:middle;fill:#000000;fill-opacity:1;stroke:none;font-family:Cooper Hewitt;-inkscape-font-specification:Cooper Hewitt Bold"
       transform="translate(-9.3426727,310.65073)"><flowRegion
         id="flowRegion4284"><rect
           id="rect4286"
           width="157.10124"
           height="53.243492"
           x="368.76059"
           y="148.53717"
           style="text-align:center;text-anchor:middle" /></flowRegion><flowPara
         id="flowPara4290"
         style="font-size:14px;font-weight:normal;text-align:center;text-anchor:middle;font-family:Liberation Sans;-inkscape-font-specification:Liberation Sans">Calculate test statistics</flowPara><flowPara
         style="font-size:14px;font-weight:normal;text-align:center;text-anchor:middle;font-family:Liberation Sans;-inkscape-font-specification:Liberation Sans"
         id="flowPara4294">on contrasts </flowPara></flowRoot>    <flowRoot
       transform="translate(-259.78437,166.03873)"
       style="font-size:12px;font-style:normal;font-variant:normal;font-weight:bold;font-stretch:normal;text-align:center;line-height:125%;letter-spacing:0px;word-spacing:0px;text-anchor:middle;fill:#000000;fill-opacity:1;stroke:none;font-family:Cooper Hewitt;-inkscape-font-specification:Cooper Hewitt Bold"
       id="flowRoot4296"
       xml:space="preserve"><flowRegion
         id="flowRegion4298"><rect
           style="text-align:center;text-anchor:middle"
           y="148.53717"
           x="368.76059"
           height="53.243492"
           width="157.10124"
           id="rect4300" /></flowRegion><flowPara
         style="font-size:14px;font-weight:normal;text-align:center;text-anchor:middle;font-family:Liberation Sans;-inkscape-font-specification:Liberation Sans"
         id="flowPara4302">Calculate test statistics</flowPara><flowPara
         id="flowPara4304"
         style="font-size:14px;font-weight:normal;text-align:center;text-anchor:middle;font-family:Liberation Sans;-inkscape-font-specification:Liberation Sans">on contrasts </flowPara></flowRoot>    <flowRoot
       xml:space="preserve"
       id="flowRoot4306"
       style="font-size:12px;font-style:normal;font-variant:normal;font-weight:bold;font-stretch:normal;text-align:center;line-height:125%;letter-spacing:0px;word-spacing:0px;text-anchor:middle;fill:#000000;fill-opacity:1;stroke:none;font-family:Cooper Hewitt;-inkscape-font-specification:Cooper Hewitt Bold"
       transform="translate(-175.01922,310.65073)"><flowRegion
         id="flowRegion4308"><rect
           id="rect4310"
           width="157.10124"
           height="53.243492"
           x="368.76059"
           y="148.53717"
           style="text-align:center;text-anchor:middle" /></flowRegion><flowPara
         style="font-size:14px;font-weight:normal;text-align:center;text-anchor:middle;font-family:Liberation Sans;-inkscape-font-specification:Liberation Sans"
         id="flowPara4314">Simulate many BM</flowPara><flowPara
         style="font-size:14px;font-weight:normal;text-align:center;text-anchor:middle;font-family:Liberation Sans;-inkscape-font-specification:Liberation Sans"
         id="flowPara4318">datasets </flowPara></flowRoot>    <flowRoot
       transform="translate(-175.38494,20.7694)"
       style="font-size:12px;font-style:normal;font-variant:normal;font-weight:bold;font-stretch:normal;text-align:center;line-height:125%;letter-spacing:0px;word-spacing:0px;text-anchor:middle;fill:#000000;fill-opacity:1;stroke:none;font-family:Cooper Hewitt;-inkscape-font-specification:Cooper Hewitt Bold"
       id="flowRoot4320"
       xml:space="preserve"><flowRegion
         id="flowRegion4322"><rect
           style="text-align:center;text-anchor:middle"
           y="148.53717"
           x="368.76059"
           height="53.243492"
           width="157.10124"
           id="rect4324" /></flowRegion><flowPara
         style="font-size:14px;font-weight:normal;text-align:center;text-anchor:middle;font-family:Liberation Sans;-inkscape-font-specification:Liberation Sans"
         id="flowPara4326">Compare sim to obs</flowPara><flowPara
         style="font-size:14px;font-weight:normal;text-align:center;text-anchor:middle;font-family:Liberation Sans;-inkscape-font-specification:Liberation Sans"
         id="flowPara4328">test statistics</flowPara></flowRoot>    <g
       id="g9764"
       transform="translate(-83.452547,146.58398)">
      <path
         transform="matrix(0.64257732,0,0,0.64257732,818.28345,83.719708)"
         d="m -280.82242,382.63104 c 0,17.29465 -14.02008,31.31473 -31.31473,31.31473 -17.29464,0 -31.31473,-14.02008 -31.31473,-31.31473 0,-17.29465 14.02009,-31.31473 31.31473,-31.31473 17.29465,0 31.31473,14.02008 31.31473,31.31473 z"
         sodipodi:ry="31.31473"
         sodipodi:rx="31.31473"
         sodipodi:cy="382.63104"
         sodipodi:cx="-312.13715"
         id="path9766"
         style="fill:#3288bd;fill-opacity:1;stroke:none"
         sodipodi:type="arc" />
      <flowRoot
         transform="matrix(0.3728058,0,0,0.3728058,286.40335,288.01801)"
         style="font-size:50px;font-style:normal;font-variant:normal;font-weight:600;font-stretch:normal;line-height:125%;letter-spacing:0px;word-spacing:0px;fill:#ffffff;fill-opacity:1;stroke:none;font-family:Latin Modern Sans Demi Cond;-inkscape-font-specification:Latin Modern Sans Demi Cond Semi-Bold"
         id="flowRoot9768"
         xml:space="preserve"><flowRegion
           id="flowRegion9770"><rect
             style="font-size:50px;font-style:normal;font-variant:normal;font-weight:600;font-stretch:normal;fill:#ffffff;font-family:Latin Modern Sans Demi Cond;-inkscape-font-specification:Latin Modern Sans Demi Cond Semi-Bold"
             y="78.575127"
             x="876.81244"
             height="58.588848"
             width="54.548237"
             id="rect9772" /></flowRegion><flowPara
           style="font-size:50px;font-style:normal;font-variant:normal;font-weight:600;font-stretch:normal;fill:#ffffff;font-family:Latin Modern Sans Demi Cond;-inkscape-font-specification:Latin Modern Sans Demi Cond Semi-Bold"
           id="flowPara9774">3</flowPara></flowRoot>    </g>
    <g
       transform="translate(-439.12265,146.58398)"
       id="g9776">
      <path
         sodipodi:type="arc"
         style="fill:#3288bd;fill-opacity:1;stroke:none"
         id="path9778"
         sodipodi:cx="-312.13715"
         sodipodi:cy="382.63104"
         sodipodi:rx="31.31473"
         sodipodi:ry="31.31473"
         d="m -280.82242,382.63104 c 0,17.29465 -14.02008,31.31473 -31.31473,31.31473 -17.29464,0 -31.31473,-14.02008 -31.31473,-31.31473 0,-17.29465 14.02009,-31.31473 31.31473,-31.31473 17.29465,0 31.31473,14.02008 31.31473,31.31473 z"
         transform="matrix(0.64257732,0,0,0.64257732,818.28345,83.719708)" />
      <flowRoot
         xml:space="preserve"
         id="flowRoot9780"
         style="font-size:50px;font-style:normal;font-variant:normal;font-weight:600;font-stretch:normal;line-height:125%;letter-spacing:0px;word-spacing:0px;fill:#ffffff;fill-opacity:1;stroke:none;font-family:Latin Modern Sans Demi Cond;-inkscape-font-specification:Latin Modern Sans Demi Cond Semi-Bold"
         transform="matrix(0.3728058,0,0,0.3728058,286.40335,288.01801)"><flowRegion
           id="flowRegion9782"><rect
             id="rect9784"
             width="54.548237"
             height="58.588848"
             x="876.81244"
             y="78.575127"
             style="font-size:50px;font-style:normal;font-variant:normal;font-weight:600;font-stretch:normal;fill:#ffffff;font-family:Latin Modern Sans Demi Cond;-inkscape-font-specification:Latin Modern Sans Demi Cond Semi-Bold" /></flowRegion><flowPara
           id="flowPara9786"
           style="font-size:50px;font-style:normal;font-variant:normal;font-weight:600;font-stretch:normal;fill:#ffffff;font-family:Latin Modern Sans Demi Cond;-inkscape-font-specification:Latin Modern Sans Demi Cond Semi-Bold">4</flowPara></flowRoot>    </g>
    <g
       id="g9788"
       transform="translate(-520.60321,-105.8297)">
      <path
         transform="matrix(0.64257732,0,0,0.64257732,818.28345,83.719708)"
         d="m -280.82242,382.63104 c 0,17.29465 -14.02008,31.31473 -31.31473,31.31473 -17.29464,0 -31.31473,-14.02008 -31.31473,-31.31473 0,-17.29465 14.02009,-31.31473 31.31473,-31.31473 17.29465,0 31.31473,14.02008 31.31473,31.31473 z"
         sodipodi:ry="31.31473"
         sodipodi:rx="31.31473"
         sodipodi:cy="382.63104"
         sodipodi:cx="-312.13715"
         id="path9790"
         style="fill:#3288bd;fill-opacity:1;stroke:none"
         sodipodi:type="arc" />
      <flowRoot
         transform="matrix(0.3728058,0,0,0.3728058,286.40335,288.01801)"
         style="font-size:50px;font-style:normal;font-variant:normal;font-weight:600;font-stretch:normal;line-height:125%;letter-spacing:0px;word-spacing:0px;fill:#ffffff;fill-opacity:1;stroke:none;font-family:Latin Modern Sans Demi Cond;-inkscape-font-specification:Latin Modern Sans Demi Cond Semi-Bold"
         id="flowRoot9792"
         xml:space="preserve"><flowRegion
           id="flowRegion9794"><rect
             style="font-size:50px;font-style:normal;font-variant:normal;font-weight:600;font-stretch:normal;fill:#ffffff;font-family:Latin Modern Sans Demi Cond;-inkscape-font-specification:Latin Modern Sans Demi Cond Semi-Bold"
             y="78.575127"
             x="876.81244"
             height="58.588848"
             width="54.548237"
             id="rect9796" /></flowRegion><flowPara
           style="font-size:50px;font-style:normal;font-variant:normal;font-weight:600;font-stretch:normal;fill:#ffffff;font-family:Latin Modern Sans Demi Cond;-inkscape-font-specification:Latin Modern Sans Demi Cond Semi-Bold"
           id="flowPara9798">5</flowPara></flowRoot>    </g>
    <g
       transform="translate(-439.12265,-249.12705)"
       id="g9800">
      <path
         sodipodi:type="arc"
         style="fill:#3288bd;fill-opacity:1;stroke:none"
         id="path9802"
         sodipodi:cx="-312.13715"
         sodipodi:cy="382.63104"
         sodipodi:rx="31.31473"
         sodipodi:ry="31.31473"
         d="m -280.82242,382.63104 c 0,17.29465 -14.02008,31.31473 -31.31473,31.31473 -17.29464,0 -31.31473,-14.02008 -31.31473,-31.31473 0,-17.29465 14.02009,-31.31473 31.31473,-31.31473 17.29465,0 31.31473,14.02008 31.31473,31.31473 z"
         transform="matrix(0.64257732,0,0,0.64257732,818.28345,83.719708)" />
      <flowRoot
         xml:space="preserve"
         id="flowRoot9804"
         style="font-size:50px;font-style:normal;font-variant:normal;font-weight:600;font-stretch:normal;line-height:125%;letter-spacing:0px;word-spacing:0px;fill:#ffffff;fill-opacity:1;stroke:none;font-family:Latin Modern Sans Demi Cond;-inkscape-font-specification:Latin Modern Sans Demi Cond Semi-Bold"
         transform="matrix(0.3728058,0,0,0.3728058,286.40335,288.01801)"><flowRegion
           id="flowRegion9806"><rect
             id="rect9808"
             width="54.548237"
             height="58.588848"
             x="876.81244"
             y="78.575127"
             style="font-size:50px;font-style:normal;font-variant:normal;font-weight:600;font-stretch:normal;fill:#ffffff;font-family:Latin Modern Sans Demi Cond;-inkscape-font-specification:Latin Modern Sans Demi Cond Semi-Bold" /></flowRegion><flowPara
           id="flowPara9810"
           style="font-size:50px;font-style:normal;font-variant:normal;font-weight:600;font-stretch:normal;fill:#ffffff;font-family:Latin Modern Sans Demi Cond;-inkscape-font-specification:Latin Modern Sans Demi Cond Semi-Bold">6</flowPara></flowRoot>    </g>
    <g
       id="g9812"
       transform="translate(-84.795227,-249.12705)">
      <path
         transform="matrix(0.64257732,0,0,0.64257732,818.28345,83.719708)"
         d="m -280.82242,382.63104 c 0,17.29465 -14.02008,31.31473 -31.31473,31.31473 -17.29464,0 -31.31473,-14.02008 -31.31473,-31.31473 0,-17.29465 14.02009,-31.31473 31.31473,-31.31473 17.29465,0 31.31473,14.02008 31.31473,31.31473 z"
         sodipodi:ry="31.31473"
         sodipodi:rx="31.31473"
         sodipodi:cy="382.63104"
         sodipodi:cx="-312.13715"
         id="path9814"
         style="fill:#3288bd;fill-opacity:1;stroke:none"
         sodipodi:type="arc" />
      <flowRoot
         transform="matrix(0.3728058,0,0,0.3728058,286.40335,288.01801)"
         style="font-size:50px;font-style:normal;font-variant:normal;font-weight:600;font-stretch:normal;line-height:125%;letter-spacing:0px;word-spacing:0px;fill:#ffffff;fill-opacity:1;stroke:none;font-family:Latin Modern Sans Demi Cond;-inkscape-font-specification:Latin Modern Sans Demi Cond Semi-Bold"
         id="flowRoot9816"
         xml:space="preserve"><flowRegion
           id="flowRegion9818"><rect
             style="font-size:50px;font-style:normal;font-variant:normal;font-weight:600;font-stretch:normal;fill:#ffffff;font-family:Latin Modern Sans Demi Cond;-inkscape-font-specification:Latin Modern Sans Demi Cond Semi-Bold"
             y="78.575127"
             x="876.81244"
             height="58.588848"
             width="54.548237"
             id="rect9820" /></flowRegion><flowPara
           style="font-size:50px;font-style:normal;font-variant:normal;font-weight:600;font-stretch:normal;fill:#ffffff;font-family:Latin Modern Sans Demi Cond;-inkscape-font-specification:Latin Modern Sans Demi Cond Semi-Bold"
           id="flowPara9822">1</flowPara></flowRoot>    </g>
    <g
       transform="matrix(0.32379124,0,0,-0.2462393,357.34518,172.77059)"
       inkscape:label="sampledist"
       id="g9853">
      <g
         id="g9855" />
      <g
         id="g9857" />
      <g
         id="g9859">
        <g
           clip-path="url(#clipPath9863)"
           id="g9861">
          <path
             id="path9867"
             style="fill:#cdcd00;fill-opacity:1;fill-rule:nonzero;stroke:none"
             d="m 150.62,46.08 0,65.6 7.09,0 0,23.22 8.98,0 0,28.36 8.98,0 0,41.71 8.98,0 0,35.96 8.98,0 0,47.47 8.98,0 0,43.61 8.98,0 0,40.36 8.98,0 0,41.41 8.98,0 0,19.79 8.98,0 0,33.68 8.98,0 0,1.23 8.98,0 0,-8.82 8.98,0 0,-15.25 8.98,0 0,-20.03 8.98,0 0,-40.98 8.98,0 0,-36.45 8.98,0 0,-56.16 8.98,0 0,-32.77 8.98,0 0,-48.58 8.98,0 0,-36.87 8.98,0 0,-28.3 8.98,0 0,-23.52 8.98,0 0,-22.24 0.64,0 0,-52.43 -205.29,0 z"
             inkscape:connector-curvature="0" />
          <path
             id="path9869"
             style="fill:none;stroke:#cdcd00;stroke-width:0.75;stroke-linecap:round;stroke-linejoin:round;stroke-miterlimit:10;stroke-opacity:1;stroke-dasharray:none"
             d="m 32,46.08 0,0.06 8.98,0 0,0 8.98,0 0,0.19 8.98,0 0,0.3 8.98,0 0,0.31 8.98,0 0,1.16 8.98,0 0,1.23 8.98,0 0,1.96 8.98,0 0,3.55 8.98,0 0,5.21 8.98,0 0,9.98 8.98,0 0,10.35 8.98,0 0,14.95 8.97,0 0,16.35 8.98,0 0,23.22 8.98,0 0,28.36 8.98,0 0,41.71 8.98,0 0,35.96 8.98,0 0,47.47 8.98,0 0,43.61 8.98,0 0,40.36 8.98,0 0,41.41 8.98,0 0,19.79 8.98,0 0,33.68 8.98,0 0,1.23 8.98,0 0,-8.82 8.98,0 0,-15.25 8.98,0 0,-20.03 8.98,0 0,-40.98 8.98,0 0,-36.45 8.98,0 0,-56.16 8.98,0 0,-32.77 8.98,0 0,-48.58 8.98,0 0,-36.87 8.98,0 0,-28.3 8.98,0 0,-23.52 8.98,0 0,-22.24 8.97,0 0,-15.86 8.98,0 0,-11.03 8.98,0 0,-10.04 8.98,0 0,-4.9 8.98,0 0,-4.05 8.98,0 0,-2.51 8.98,0 0,-1.28 8.98,0 0,-1.41 8.98,0 0,-0.92 8.98,0 0,0 8.98,0 0,-0.31 8.98,0 0,0 8.98,0 0,-0.12"
             inkscape:connector-curvature="0" />
          <path
             id="path9871"
             style="fill:none;stroke:#cdcd00;stroke-width:0.75;stroke-linecap:round;stroke-linejoin:round;stroke-miterlimit:10;stroke-opacity:1;stroke-dasharray:none"
             d="m 150.62,30.24 205.29,0"
             inkscape:connector-curvature="0" />
          <path
             id="path9873"
             style="fill:none;stroke:#cdcd00;stroke-width:0.75;stroke-linecap:round;stroke-linejoin:round;stroke-miterlimit:10;stroke-opacity:1;stroke-dasharray:none"
             d="m 150.62,31.68 0,-1.44 0,-1.44"
             inkscape:connector-curvature="0" />
          <path
             id="path9875"
             style="fill:none;stroke:#cdcd00;stroke-width:0.75;stroke-linecap:round;stroke-linejoin:round;stroke-miterlimit:10;stroke-opacity:1;stroke-dasharray:none"
             d="m 355.91,28.8 0,1.44 0,1.44"
             inkscape:connector-curvature="0" />
        </g>
      </g>
    </g>
    <flowRoot
       xml:space="preserve"
       id="flowRoot9014"
       style="font-size:22px;font-style:normal;font-variant:normal;font-weight:bold;font-stretch:normal;line-height:125%;letter-spacing:0px;word-spacing:0px;fill:#3288bd;fill-opacity:1;stroke:none;font-family:Cooper Hewitt;-inkscape-font-specification:Cooper Hewitt Bold"
       transform="matrix(1.9375167,0,0,1.9375167,-169.24447,-600.84119)"><flowRegion
         id="flowRegion9016"><rect
           id="rect9018"
           width="19.552847"
           height="25.527328"
           x="305.78482"
           y="365.29684"
           style="font-size:22px;fill:#3288bd;fill-opacity:1" /></flowRegion><flowPara
         id="flowPara9020"
         style="font-size:22px;font-style:normal;font-variant:normal;font-weight:600;font-stretch:normal;fill:#3288bd;fill-opacity:1;font-family:Latin Modern Sans Demi Cond;-inkscape-font-specification:Latin Modern Sans Demi Cond Semi-Bold">Θ</flowPara></flowRoot>    <path
       style="fill:none;stroke:#3288bd;stroke-width:3.81630349000000013;stroke-linecap:butt;stroke-linejoin:miter;stroke-miterlimit:4;stroke-opacity:1;stroke-dasharray:none"
       d="m 578.02784,227.07884 -76.9134,0"
       id="path9067"
       inkscape:connector-curvature="0" />
    <path
       inkscape:connector-curvature="0"
       id="path9069"
       d="m 578.74,300.65277 -76.91341,0"
       style="fill:none;stroke:#3288bd;stroke-width:3.81630349000000013;stroke-linecap:butt;stroke-linejoin:miter;stroke-miterlimit:4;stroke-opacity:1;stroke-dasharray:none" />
    <path
       style="fill:none;stroke:#3288bd;stroke-width:3.81630349000000013;stroke-linecap:butt;stroke-linejoin:miter;stroke-miterlimit:4;stroke-opacity:1;stroke-dasharray:none"
       d="m 503.3433,300.53123 0,-72.3942"
       id="path9071"
       inkscape:connector-curvature="0" />
    <path
       style="fill:none;stroke:#3288bd;stroke-width:3.81630349000000013;stroke-linecap:butt;stroke-linejoin:miter;stroke-miterlimit:4;stroke-opacity:1;stroke-dasharray:none"
       d="m 502.11928,262.44471 -37.61777,0"
       id="path9092"
       inkscape:connector-curvature="0" />
    <flowRoot
       transform="matrix(1.9375167,0,0,1.9375167,-58.533305,-472.63435)"
       style="font-size:22px;font-style:normal;font-variant:normal;font-weight:bold;font-stretch:normal;line-height:125%;letter-spacing:0px;word-spacing:0px;fill:#cdcd00;fill-opacity:1;stroke:none;font-family:Cooper Hewitt;-inkscape-font-specification:Cooper Hewitt Bold"
       id="flowRoot11970"
       xml:space="preserve"><flowRegion
         id="flowRegion11972"><rect
           style="font-size:22px;fill:#cdcd00;fill-opacity:1"
           y="365.29684"
           x="305.78482"
           height="25.866587"
           width="16.4995"
           id="rect11974" /></flowRegion><flowPara
         style="font-size:22px;font-style:normal;font-variant:normal;font-weight:600;font-stretch:normal;fill:#cdcd00;fill-opacity:1;font-family:Latin Modern Sans Demi Cond;-inkscape-font-specification:Latin Modern Sans Demi Cond Semi-Bold"
         id="flowPara11976">1</flowPara></flowRoot>    <g
       transform="matrix(0.35182161,0,0,-0.35182161,218.85402,463.98683)"
       inkscape:label="bm"
       id="g12011">
      <g
         id="g12013" />
      <g
         id="g12015" />
      <g
         id="g12017" />
      <g
         id="g12019" />
      <g
         id="g12021" />
      <g
         id="g12023" />
      <g
         id="g12025" />
      <g
         id="g12027">
        <g
           clip-path="url(#clipPath12031)"
           id="g12029">
          <path
             id="path12035"
             style="fill:#ffffff;fill-opacity:1;fill-rule:nonzero;stroke:none"
             d="m 14.29,14.29 273.71,0 0,273.71 -273.71,0 0,-273.71 z"
             inkscape:connector-curvature="0" />
          <path
             id="path12037"
             style="fill:none;stroke:#3288bd;stroke-width:4.25;stroke-linecap:butt;stroke-linejoin:round;stroke-miterlimit:1;stroke-opacity:0.6;stroke-dasharray:none"
             d="m 26.73,150.88 1.25,0.02 1.25,0.05 1.25,-0.05 1.25,0.17 1.25,0.12 1.25,0.43 1.25,0.01 1.25,-0.34 1.25,-0.23 1.25,-0.13 1.25,0.24 1.25,0.03 1.25,0.33 1.25,-0.03 1.25,-0.36 1.25,0.99 1.25,0.17 1.26,-0.6 1.25,0.36 1.25,-1.65 1.25,0.35 1.25,-0.63 1.25,-0.86 1.25,0.94 1.25,0.38 1.25,2.14 1.25,-1.36 1.25,0.11 1.25,-0.74 1.25,1.78 1.25,0.89 1.25,-0.23 1.25,0.2 1.25,-1.96 1.25,0.81 1.25,0.29 1.25,0.94 1.25,2.78 1.25,-0.33 1.25,1.52 1.25,-0.57 1.26,-0.75 1.25,-0.16 1.25,-1.62 1.25,-1.66 1.25,1.3 1.25,-0.56 1.25,-0.87 1.25,0.75 1.25,0.54 1.25,1.89 1.25,-0.43 1.25,0.4 1.25,0.31 1.25,5.16 1.25,0.66 1.25,4.79 1.25,-1.06 1.25,-3.11 1.25,0.79 1.25,0.57 1.25,-2.09 1.25,2.76 1.25,-5.22 1.25,-3.1 1.25,3.22 1.26,-1.09 1.25,1.49 1.25,3.35 1.25,2.36 1.25,0.74 1.25,-0.23 1.25,1.1 1.25,0.83 1.25,1.26 1.25,-3.95 1.25,5.13 1.25,0.73 1.25,2.02 1.25,1.42 1.25,3.78 1.25,-4.03 1.25,-0.51 1.25,3.77 1.25,-0.18 1.25,3.11 1.25,1.91 1.25,-6.1 1.25,2.15 1.25,4.92 1.25,-2.61 1.26,-0.98 1.25,-4.63 1.25,-0.91 1.25,7.46 1.25,1.9 1.25,3.68 1.25,-5.31 1.25,1.57 1.25,-13.46 1.25,-4.79 1.25,9.32 1.25,-3.96 1.25,1.05 1.25,1.75 1.25,-3.68 1.25,-3 1.25,1.83 1.25,9.34 1.25,-3.16 1.25,-3.92 1.25,-0.11 1.25,-3.17 1.25,8.48 1.25,-4.46 1.25,2.44 1.26,-6.92 1.25,-7.17 1.25,6.46 1.25,7.05 1.25,3.8 1.25,2.21 1.25,7.91 1.25,-5.72 1.25,-1.75 1.25,5.71 1.25,-5.52 1.25,-6.13 1.25,6.58 1.25,-11.75 1.25,4.37 1.25,-9.35 1.25,-1.27 1.25,0.06 1.25,-0.06 1.25,-0.16 1.25,-4.48 1.25,-4.66 1.25,-9.58 1.25,10.5 1.26,-7.88 1.25,-7.1 1.25,-2.34 1.25,-0.24 1.25,-1.67 1.25,12.61 1.25,-4.24 1.25,-0.58 1.25,-7.65 1.25,-6.28 1.25,-10.32 1.25,-2.5 1.25,9.5 1.25,7.68 1.25,-10.91 1.25,3.85 1.25,0.42 1.25,-6.36 1.25,5.98 1.25,-3.39 1.25,6.62 1.25,-6.71 1.25,7.4 1.25,-7.54 1.25,8.27 1.26,-0.82 1.25,-6.48 1.25,10.65 1.25,-9.6 1.25,-0.98 1.25,-19.5 1.25,-2.11 1.25,6.96 1.25,6.33 1.25,11.93 1.25,0.24 1.25,7.96 1.25,-3.23 1.25,-5.9 1.25,5.3 1.25,-2.54 1.25,0.57 1.25,-6.33 1.25,-10.03 1.25,-10.4 1.25,-9.62 1.25,13.22 1.25,-9.85 1.25,10.62 1.25,-6.8 1.26,4.6 1.25,-12.04 1.25,-16.06 1.25,-13.52 1.25,7.75 1.25,-8.19 1.25,12.43 1.25,-4.02 1.25,16.01"
             inkscape:connector-curvature="0" />
          <path
             id="path12039"
             style="fill:none;stroke:#3288bd;stroke-width:4.25;stroke-linecap:butt;stroke-linejoin:round;stroke-miterlimit:1;stroke-opacity:0.6;stroke-dasharray:none"
             d="m 26.73,150.88 1.25,0.03 1.25,0.04 1.25,0.06 1.25,-0.2 1.25,0.46 1.25,-0.49 1.25,0.23 1.25,0.27 1.25,0.21 1.25,-0.21 1.25,-0.81 1.25,0.52 1.25,-0.25 1.25,-0.29 1.25,1.13 1.25,0.17 1.25,0.02 1.26,-0.93 1.25,-0.73 1.25,0.36 1.25,1.81 1.25,1.31 1.25,1.86 1.25,1.19 1.25,2.17 1.25,1.15 1.25,-1.64 1.25,1.68 1.25,-0.93 1.25,-1.3 1.25,-4.48 1.25,1.78 1.25,-1.04 1.25,-1.81 1.25,-0.85 1.25,2.17 1.25,-0.23 1.25,1 1.25,-0.66 1.25,-0.01 1.25,3.01 1.26,1.88 1.25,-0.79 1.25,-0.36 1.25,2.49 1.25,2.42 1.25,4.94 1.25,3.64 1.25,0.11 1.25,1.09 1.25,-3.29 1.25,0.82 1.25,1.44 1.25,3.19 1.25,2.04 1.25,-4.67 1.25,2.86 1.25,-1.84 1.25,-4.34 1.25,1.24 1.25,-0.78 1.25,0.55 1.25,2.68 1.25,2.41 1.25,3.07 1.25,-2.78 1.26,-1.25 1.25,7.39 1.25,0.7 1.25,5.21 1.25,6.6 1.25,0.77 1.25,-1.52 1.25,-1.44 1.25,1.78 1.25,2.68 1.25,4.24 1.25,-4.38 1.25,7.12 1.25,4.1 1.25,-2.13 1.25,-2.23 1.25,4.15 1.25,-1.31 1.25,-2.37 1.25,-4.48 1.25,-3.69 1.25,1.67 1.25,-1.71 1.25,2.47 1.25,-2.41 1.26,2.3 1.25,-5.05 1.25,1.76 1.25,0.6 1.25,-6.8 1.25,-0.38 1.25,0.62 1.25,-3.46 1.25,2.25 1.25,-6.3 1.25,-5.81 1.25,-7.16 1.25,0.81 1.25,1.77 1.25,6.74 1.25,0.24 1.25,-1.04 1.25,-0.93 1.25,0.67 1.25,0.99 1.25,8.15 1.25,-5.37 1.25,-0.8 1.25,-11.46 1.25,1.98 1.26,-8.91 1.25,9.39 1.25,3.43 1.25,0.89 1.25,-1.22 1.25,-1.39 1.25,0.81 1.25,11.28 1.25,2.44 1.25,-4.8 1.25,-0.15 1.25,5.42 1.25,-1.5 1.25,12.83 1.25,0.67 1.25,5.24 1.25,3.67 1.25,-7.07 1.25,-3.63 1.25,-2.99 1.25,-10.48 1.25,-2.07 1.25,-5.88 1.25,-5.12 1.26,18.84 1.25,-5.45 1.25,-8.05 1.25,-3.01 1.25,-5 1.25,-4.26 1.25,11.13 1.25,-2.35 1.25,-2.97 1.25,7.13 1.25,15.73 1.25,0.43 1.25,-1.25 1.25,-3.72 1.25,-0.93 1.25,3.97 1.25,-2.41 1.25,-10.97 1.25,-3.66 1.25,-12.56 1.25,0.98 1.25,-4.77 1.25,-1.01 1.25,-17.62 1.25,2.47 1.26,7.22 1.25,2.92 1.25,1.9 1.25,4.47 1.25,5.77 1.25,9.19 1.25,3.34 1.25,8.47 1.25,12.42 1.25,-3.12 1.25,0.3 1.25,-11.71 1.25,13.41 1.25,1.36 1.25,-10.18 1.25,14.63 1.25,-0.09 1.25,16.11 1.25,-4.96 1.25,0.89 1.25,19.23 1.25,4.09 1.25,-6.53 1.25,5.21 1.25,8.75 1.26,-15.51 1.25,1.43 1.25,-3.6 1.25,-2.11 1.25,1.43 1.25,9.6 1.25,-16.18 1.25,1.38 1.25,-13.68"
             inkscape:connector-curvature="0" />
          <path
             id="path12041"
             style="fill:none;stroke:#3288bd;stroke-width:4.25;stroke-linecap:butt;stroke-linejoin:round;stroke-miterlimit:1;stroke-opacity:0.6;stroke-dasharray:none"
             d="m 26.73,150.88 1.25,-0.02 1.25,-0.01 1.25,-0.02 1.25,-0.16 1.25,-0.04 1.25,0.35 1.25,0.04 1.25,-0.11 1.25,0.16 1.25,-0.86 1.25,-0.44 1.25,0.04 1.25,0.07 1.25,-0.59 1.25,-0.91 1.25,1.18 1.25,-1.25 1.26,-1.24 1.25,-0.78 1.25,1.17 1.25,1.74 1.25,0.06 1.25,-0.82 1.25,0.1 1.25,0.03 1.25,0.82 1.25,1.75 1.25,-2.62 1.25,2.68 1.25,-0.66 1.25,-0.3 1.25,-3.36 1.25,-0.08 1.25,0.72 1.25,-1.38 1.25,1.57 1.25,2.19 1.25,3.09 1.25,-1.27 1.25,-2.02 1.25,-2.45 1.26,3.28 1.25,0.81 1.25,-3.03 1.25,-0.56 1.25,-1.84 1.25,1.83 1.25,0.89 1.25,1.49 1.25,1.98 1.25,-1.38 1.25,-1.77 1.25,-4.69 1.25,1.99 1.25,-3.63 1.25,3.01 1.25,-0.06 1.25,-0.97 1.25,4.24 1.25,-1.12 1.25,2.3 1.25,-0.14 1.25,-1.24 1.25,-1.85 1.25,0.39 1.25,-0.57 1.26,0.75 1.25,-0.59 1.25,3.02 1.25,3.47 1.25,4.97 1.25,2.58 1.25,0.37 1.25,1.05 1.25,4.4 1.25,4.91 1.25,5 1.25,4.29 1.25,1.03 1.25,-2.8 1.25,-4.81 1.25,3.24 1.25,4.02 1.25,-3.34 1.25,-2.47 1.25,3.35 1.25,-4.06 1.25,8.48 1.25,-5.61 1.25,0.31 1.25,4.44 1.26,7.09 1.25,-3.18 1.25,-6.42 1.25,-0.27 1.25,-1.29 1.25,4.32 1.25,-7.32 1.25,-5 1.25,-0.31 1.25,-3.91 1.25,1.9 1.25,-4.42 1.25,-1.15 1.25,-2.46 1.25,7.28 1.25,-1.92 1.25,-0.69 1.25,-0.64 1.25,4.2 1.25,6.41 1.25,0.08 1.25,3.95 1.25,3.65 1.25,-4.28 1.25,-1.51 1.26,0.68 1.25,0.15 1.25,12.36 1.25,-9.3 1.25,-4.78 1.25,10.04 1.25,0.86 1.25,-3.34 1.25,-10.89 1.25,0.45 1.25,-1.55 1.25,4.19 1.25,0.83 1.25,2.65 1.25,-1.76 1.25,-0.82 1.25,-5.02 1.25,-2.46 1.25,-2.1 1.25,-5.68 1.25,-4.53 1.25,-2.05 1.25,2.11 1.25,0.59 1.26,7.52 1.25,4.2 1.25,-5.46 1.25,-0.36 1.25,8.54 1.25,-2.31 1.25,12.92 1.25,-5.11 1.25,1.63 1.25,-3.08 1.25,-4.88 1.25,-8.24 1.25,2.3 1.25,-1.87 1.25,-0.6 1.25,0.44 1.25,-2.23 1.25,1.1 1.25,12.22 1.25,10.33 1.25,10.75 1.25,-1.34 1.25,-5.28 1.25,7.58 1.25,4.42 1.26,5.86 1.25,-11.64 1.25,-5.69 1.25,3.62 1.25,-3.76 1.25,13.16 1.25,18.6 1.25,-7.67 1.25,-9.73 1.25,14.5 1.25,-5.73 1.25,-2.24 1.25,-6.86 1.25,-4.86 1.25,1.41 1.25,7.19 1.25,-3.88 1.25,-6.12 1.25,13.37 1.25,-8.62 1.25,-0.9 1.25,-5.53 1.25,-4.61 1.25,-1.96 1.25,-13.11 1.26,-4.92 1.25,6.14 1.25,3.64 1.25,-3.61 1.25,12.61 1.25,-2.72 1.25,8.18 1.25,4.89 1.25,-1"
             inkscape:connector-curvature="0" />
          <path
             id="path12043"
             style="fill:none;stroke:#3288bd;stroke-width:4.25;stroke-linecap:butt;stroke-linejoin:round;stroke-miterlimit:1;stroke-opacity:0.6;stroke-dasharray:none"
             d="m 26.73,150.88 1.25,-0.07 1.25,0.06 1.25,0.03 1.25,0.22 1.25,-0.18 1.25,-0.24 1.25,0.17 1.25,-0.23 1.25,0.27 1.25,0.57 1.25,-0.56 1.25,-0.56 1.25,0.19 1.25,0.37 1.25,0.11 1.25,-1.44 1.25,-0.49 1.26,-0.64 1.25,0.28 1.25,-0.28 1.25,0.96 1.25,-1.22 1.25,0.55 1.25,1.17 1.25,0.42 1.25,0.67 1.25,0.57 1.25,1.1 1.25,0.28 1.25,0.58 1.25,-1.95 1.25,-0.26 1.25,1.23 1.25,-0.3 1.25,-1.59 1.25,0.69 1.25,-0.03 1.25,-0.73 1.25,2.49 1.25,-1.72 1.25,1.35 1.26,-0.08 1.25,-1.56 1.25,-1.92 1.25,-0.29 1.25,-4.9 1.25,1.57 1.25,-1.95 1.25,-0.76 1.25,-0.88 1.25,1.52 1.25,-1.16 1.25,4.98 1.25,-0.96 1.25,2.59 1.25,0.3 1.25,-0.87 1.25,1.79 1.25,-5.22 1.25,5.48 1.25,-0.01 1.25,2.99 1.25,-1.08 1.25,-3.47 1.25,-3.85 1.25,-0.68 1.26,-2.24 1.25,-4.55 1.25,-3.3 1.25,3.91 1.25,1.93 1.25,-4.17 1.25,-1.34 1.25,-1.42 1.25,1.39 1.25,4.76 1.25,6.37 1.25,-1.61 1.25,-0.26 1.25,-5.84 1.25,0.25 1.25,-5.55 1.25,2.21 1.25,0.5 1.25,3.77 1.25,6.59 1.25,0.45 1.25,3.5 1.25,2.71 1.25,0.46 1.25,-1.24 1.26,4.1 1.25,-7.67 1.25,2.35 1.25,1.52 1.25,-8.95 1.25,1.6 1.25,-3.81 1.25,-2.11 1.25,-4.8 1.25,-3.14 1.25,3.49 1.25,-1.85 1.25,-10.15 1.25,6.11 1.25,0.58 1.25,8.16 1.25,-2 1.25,-10.83 1.25,-0.89 1.25,-2.83 1.25,-5.26 1.25,-4.32 1.25,-6.94 1.25,-2.72 1.25,-1.05 1.26,4.4 1.25,2.98 1.25,-9 1.25,-5.3 1.25,-3.57 1.25,0.01 1.25,-0.94 1.25,5.79 1.25,-0.79 1.25,-2.17 1.25,-8.59 1.25,5.82 1.25,3.53 1.25,-3.78 1.25,-3 1.25,14.45 1.25,-2.8 1.25,3.74 1.25,4.07 1.25,0.23 1.25,4.36 1.25,6.14 1.25,-4.03 1.25,3.47 1.26,1.98 1.25,-0.08 1.25,-9.46 1.25,1.83 1.25,7.27 1.25,8.77 1.25,-6.39 1.25,3.31 1.25,5.47 1.25,7.05 1.25,3.03 1.25,0.36 1.25,-9.45 1.25,-4.91 1.25,5.74 1.25,-2.35 1.25,4.36 1.25,7.1 1.25,-6.82 1.25,-8.47 1.25,0.81 1.25,-3.26 1.25,6.23 1.25,-1.72 1.25,5.65 1.26,9.54 1.25,-0.37 1.25,10.52 1.25,4.64 1.25,-4.68 1.25,-5.34 1.25,2.63 1.25,8.36 1.25,5.18 1.25,4.81 1.25,12.9 1.25,8.26 1.25,-13.93 1.25,3.2 1.25,-0.48 1.25,-5.19 1.25,-6.58 1.25,-0.99 1.25,-9.03 1.25,4.83 1.25,-5.48 1.25,1.42 1.25,-11.67 1.25,3.96 1.25,12.39 1.26,0.98 1.25,3.87 1.25,9.62 1.25,5.16 1.25,-14.25 1.25,-4.97 1.25,-2.32 1.25,6.52 1.25,-9.37"
             inkscape:connector-curvature="0" />
          <path
             id="path12045"
             style="fill:none;stroke:#3288bd;stroke-width:4.25;stroke-linecap:butt;stroke-linejoin:round;stroke-miterlimit:1;stroke-opacity:0.6;stroke-dasharray:none"
             d="m 26.73,150.88 1.25,0 1.25,0.05 1.25,0.03 1.25,-0.08 1.25,-0.07 1.25,0.01 1.25,-0.16 1.25,-0.33 1.25,0.35 1.25,0.21 1.25,0.41 1.25,0.18 1.25,-0.84 1.25,-0.7 1.25,-1.31 1.25,0.5 1.25,-0.55 1.26,-0.06 1.25,1.45 1.25,-0.02 1.25,-1.13 1.25,0.22 1.25,0.65 1.25,0.7 1.25,-0.54 1.25,-1.29 1.25,-1.46 1.25,0.99 1.25,0.36 1.25,-0.35 1.25,-0.55 1.25,1.48 1.25,1.43 1.25,1.03 1.25,-0.31 1.25,1.29 1.25,-1.03 1.25,1.38 1.25,-1.78 1.25,-1.88 1.25,1.92 1.26,-1.4 1.25,1.77 1.25,-0.01 1.25,0.06 1.25,1.6 1.25,6.19 1.25,-1.87 1.25,-3.05 1.25,-1.07 1.25,3.52 1.25,-3.67 1.25,-2.67 1.25,1.27 1.25,-3.2 1.25,-3.65 1.25,0.74 1.25,0.89 1.25,3.47 1.25,-0.51 1.25,-0.97 1.25,2.27 1.25,5.71 1.25,-2.08 1.25,1.9 1.25,2.81 1.26,-0.33 1.25,0.38 1.25,-0.91 1.25,-1.03 1.25,-3.28 1.25,1.53 1.25,-1.98 1.25,3.38 1.25,-0.51 1.25,1.42 1.25,-0.16 1.25,0.97 1.25,4.69 1.25,-2.75 1.25,4.62 1.25,-2.72 1.25,6.13 1.25,-0.45 1.25,-0.76 1.25,-1.94 1.25,2.37 1.25,-5.51 1.25,1.18 1.25,-1.99 1.25,-5.03 1.26,5.36 1.25,-2.6 1.25,-0.68 1.25,-1.84 1.25,3.58 1.25,6.74 1.25,0.34 1.25,8.94 1.25,1.65 1.25,-4.7 1.25,8.53 1.25,3.36 1.25,0.6 1.25,0.87 1.25,-8.61 1.25,-5.89 1.25,5 1.25,1.87 1.25,-10.26 1.25,-6.12 1.25,3.72 1.25,7.55 1.25,6.09 1.25,-2 1.25,-5.6 1.26,1.02 1.25,-2.39 1.25,1.92 1.25,-12.33 1.25,-8.06 1.25,3.25 1.25,7.43 1.25,-5.66 1.25,-2.33 1.25,-0.47 1.25,-5.06 1.25,0.48 1.25,3.28 1.25,2.05 1.25,2.65 1.25,3.08 1.25,-9.3 1.25,2.04 1.25,-7.64 1.25,-5.79 1.25,-5.02 1.25,0.07 1.25,4.62 1.25,-7.23 1.26,2.95 1.25,-1.94 1.25,-13.12 1.25,5.89 1.25,-1.39 1.25,-8.17 1.25,11.67 1.25,12.06 1.25,10.16 1.25,5.95 1.25,-12.52 1.25,-0.68 1.25,6.48 1.25,-9.01 1.25,8.27 1.25,5.29 1.25,3.06 1.25,-2.96 1.25,2.46 1.25,13.08 1.25,-12.61 1.25,3.2 1.25,9.61 1.25,10.41 1.25,-9.07 1.26,-4.16 1.25,-0.54 1.25,1.03 1.25,14.6 1.25,-4.22 1.25,-1.62 1.25,0.52 1.25,-9.86 1.25,-4.16 1.25,4.69 1.25,7.18 1.25,-0.33 1.25,-6.95 1.25,-3.87 1.25,-1 1.25,12.38 1.25,2.8 1.25,0 1.25,-18.54 1.25,-4.98 1.25,4.22 1.25,12.57 1.25,6.37 1.25,0.53 1.25,2.61 1.26,-0.89 1.25,-10.62 1.25,12.9 1.25,-2.58 1.25,3.36 1.25,-7.75 1.25,0.75 1.25,11.63 1.25,-3.69"
             inkscape:connector-curvature="0" />
          <path
             id="path12047"
             style="fill:none;stroke:#3288bd;stroke-width:4.25;stroke-linecap:butt;stroke-linejoin:round;stroke-miterlimit:1;stroke-opacity:0.6;stroke-dasharray:none"
             d="m 26.73,150.88 1.25,-0.02 1.25,-0.21 1.25,-0.15 1.25,0.1 1.25,0.04 1.25,0.55 1.25,-0.34 1.25,0.63 1.25,0.32 1.25,-0.03 1.25,-0.11 1.25,0.3 1.25,0.18 1.25,0.86 1.25,-0.51 1.25,0.48 1.25,-0.78 1.26,-1.68 1.25,-0.28 1.25,0.04 1.25,-1.7 1.25,-0.95 1.25,-0.6 1.25,-0.89 1.25,0.82 1.25,0.18 1.25,-2.6 1.25,0.38 1.25,0.05 1.25,0.19 1.25,0.36 1.25,0.9 1.25,-0.14 1.25,-1.31 1.25,-0.48 1.25,1.87 1.25,2.71 1.25,-3.56 1.25,-1.57 1.25,-2.21 1.25,1.14 1.26,-1.18 1.25,1.86 1.25,-5.89 1.25,-0.64 1.25,-0.12 1.25,-0.82 1.25,-0.28 1.25,-2.87 1.25,0.49 1.25,-0.15 1.25,-3.42 1.25,-1.21 1.25,-0.12 1.25,2.06 1.25,0.78 1.25,1.53 1.25,-4.74 1.25,-1.65 1.25,1.37 1.25,-5.47 1.25,-1.14 1.25,0.42 1.25,0.06 1.25,-1.38 1.25,5.31 1.26,-1.92 1.25,-2.62 1.25,-6.42 1.25,-3.33 1.25,5.5 1.25,-1.59 1.25,0.53 1.25,-5.02 1.25,-0.79 1.25,1.36 1.25,2 1.25,0.86 1.25,0.31 1.25,-1.68 1.25,-5.9 1.25,4.19 1.25,1.09 1.25,0.65 1.25,0.18 1.25,-4.42 1.25,1.95 1.25,-0.27 1.25,-3.07 1.25,-3.75 1.25,6.84 1.26,1.98 1.25,-0.18 1.25,-9.48 1.25,6.34 1.25,10.29 1.25,4.02 1.25,7.46 1.25,2.78 1.25,-2.92 1.25,1.69 1.25,-7.11 1.25,-2.8 1.25,4.21 1.25,-6.53 1.25,-3.45 1.25,-5.72 1.25,3.18 1.25,4.72 1.25,5.29 1.25,-3.82 1.25,4.42 1.25,2.09 1.25,1.88 1.25,8.94 1.25,-0.49 1.26,-5.74 1.25,2.66 1.25,-13.1 1.25,0.71 1.25,-5.73 1.25,3.35 1.25,10.23 1.25,-3.66 1.25,-0.75 1.25,1.71 1.25,2.47 1.25,1.05 1.25,0.85 1.25,16.62 1.25,-1.75 1.25,-2.03 1.25,4.1 1.25,-4.63 1.25,0.78 1.25,-15.07 1.25,-6.92 1.25,5.97 1.25,15.91 1.25,-5.61 1.26,-0.94 1.25,1.41 1.25,-0.2 1.25,-8.69 1.25,-8.67 1.25,5.8 1.25,-9.98 1.25,6.02 1.25,-2.57 1.25,-0.42 1.25,7.76 1.25,2.91 1.25,8.73 1.25,-1.56 1.25,7.27 1.25,-13.15 1.25,-0.99 1.25,5.45 1.25,8.36 1.25,15.86 1.25,-3.21 1.25,2.73 1.25,0.03 1.25,2.78 1.25,-18.96 1.26,-14.59 1.25,-9.78 1.25,10.03 1.25,-7.41 1.25,-0.94 1.25,4.41 1.25,5.66 1.25,-8.72 1.25,9.51 1.25,-2.57 1.25,3.53 1.25,2.61 1.25,-5.25 1.25,1.67 1.25,-9.22 1.25,-10.38 1.25,-2.88 1.25,-14.24 1.25,-16.45 1.25,8.8 1.25,-14.24 1.25,4.98 1.25,-12.2 1.25,14.56 1.25,-6.88 1.26,-5.95 1.25,-6.99 1.25,17.83 1.25,22.94 1.25,-8.98 1.25,-13.28 1.25,8.93 1.25,6.75 1.25,-6.37"
             inkscape:connector-curvature="0" />
          <path
             id="path12049"
             style="fill:none;stroke:#3288bd;stroke-width:4.25;stroke-linecap:butt;stroke-linejoin:round;stroke-miterlimit:1;stroke-opacity:0.6;stroke-dasharray:none"
             d="m 26.73,150.88 1.25,0 1.25,0.03 1.25,0.07 1.25,0.2 1.25,0.02 1.25,-0.19 1.25,0.11 1.25,0.2 1.25,-0.03 1.25,0.14 1.25,-0.58 1.25,-0.06 1.25,0.07 1.25,-0.54 1.25,0.7 1.25,0.37 1.25,-0.43 1.26,-0.13 1.25,-0.12 1.25,-0.86 1.25,-0.95 1.25,0.56 1.25,1.56 1.25,0.75 1.25,-0.39 1.25,-0.63 1.25,-1.92 1.25,2.81 1.25,0.31 1.25,1.67 1.25,-1.12 1.25,-0.7 1.25,1.63 1.25,1.64 1.25,0.11 1.25,-0.99 1.25,1.89 1.25,1.97 1.25,0.84 1.25,-3.43 1.25,2.06 1.26,-0.55 1.25,1.12 1.25,2.86 1.25,-1.36 1.25,2.83 1.25,3.11 1.25,-2 1.25,-3.82 1.25,-1.07 1.25,0.1 1.25,-1.57 1.25,1.7 1.25,0.55 1.25,-0.92 1.25,-0.9 1.25,1.48 1.25,-1.2 1.25,1.32 1.25,1.09 1.25,-1.89 1.25,1.89 1.25,7.6 1.25,-6.95 1.25,-4.77 1.25,-0.06 1.26,2.43 1.25,0.84 1.25,-0.96 1.25,4.48 1.25,0.42 1.25,-2.08 1.25,-4.36 1.25,-1.76 1.25,-6.57 1.25,-2.47 1.25,-2.21 1.25,-2.19 1.25,2.97 1.25,-5.73 1.25,-0.22 1.25,-5.3 1.25,0.78 1.25,-5.34 1.25,5.36 1.25,-2.27 1.25,4.74 1.25,3.95 1.25,-0.02 1.25,-2.52 1.25,-2.91 1.26,-2.88 1.25,-4.44 1.25,-0.95 1.25,0.15 1.25,-3.48 1.25,-10.31 1.25,0.89 1.25,0.37 1.25,-8.23 1.25,5.95 1.25,2.83 1.25,9.43 1.25,-0.65 1.25,8.52 1.25,0.74 1.25,1.66 1.25,4.9 1.25,-10.61 1.25,0.61 1.25,12.27 1.25,-2.89 1.25,9.16 1.25,0.67 1.25,-0.84 1.25,-7.3 1.26,-2.84 1.25,3.5 1.25,7.97 1.25,1.15 1.25,3.22 1.25,-12.45 1.25,5.55 1.25,-5.57 1.25,1.47 1.25,2.01 1.25,3.97 1.25,1.06 1.25,-9.34 1.25,-6.65 1.25,-4.06 1.25,-5.61 1.25,0.29 1.25,1.32 1.25,2.46 1.25,0.19 1.25,2.41 1.25,-3.44 1.25,-5.78 1.25,-5.8 1.26,-9.08 1.25,-2.54 1.25,-4.53 1.25,3.61 1.25,7.66 1.25,1.59 1.25,-6.02 1.25,-2.8 1.25,-10.89 1.25,-3.03 1.25,3.96 1.25,11.64 1.25,-10.91 1.25,9.4 1.25,0.08 1.25,4.54 1.25,-7.74 1.25,-0.75 1.25,3.27 1.25,-5.03 1.25,-1.16 1.25,4.92 1.25,1.11 1.25,-11.13 1.25,-1.64 1.26,4.16 1.25,2.45 1.25,-2.77 1.25,-13.21 1.25,-1.31 1.25,3.9 1.25,9.35 1.25,4.8 1.25,-2.33 1.25,-9.15 1.25,-0.87 1.25,1.55 1.25,2.63 1.25,-6.05 1.25,-3.04 1.25,-3.11 1.25,-13.79 1.25,-6.25 1.25,9.51 1.25,-19.4 1.25,-0.61 1.25,17.43 1.25,5.37 1.25,0 1.25,-3.57 1.26,5.03 1.25,-3.35 1.25,5.23 1.25,4.05 1.25,-13.7 1.25,-12.7 1.25,-11.38 1.25,-10.27 1.25,-2.17"
             inkscape:connector-curvature="0" />
          <path
             id="path12051"
             style="fill:none;stroke:#3288bd;stroke-width:4.25;stroke-linecap:butt;stroke-linejoin:round;stroke-miterlimit:1;stroke-opacity:0.6;stroke-dasharray:none"
             d="m 26.73,150.88 1.25,-0.06 1.25,0 1.25,0.02 1.25,-0.03 1.25,-0.11 1.25,-0.41 1.25,0.2 1.25,-0.03 1.25,0.07 1.25,1.07 1.25,0.24 1.25,-1 1.25,-0.28 1.25,-0.37 1.25,0.89 1.25,0.45 1.25,-0.53 1.26,-0.08 1.25,-0.6 1.25,0.87 1.25,-0.85 1.25,-0.13 1.25,-2.35 1.25,0.45 1.25,1.01 1.25,-1.66 1.25,0.12 1.25,-1.51 1.25,-1 1.25,-1.4 1.25,0.56 1.25,-1.38 1.25,-0.85 1.25,-0.69 1.25,-1.88 1.25,1.15 1.25,-0.56 1.25,1.24 1.25,3.16 1.25,-1.88 1.25,-0.15 1.26,0.4 1.25,2.95 1.25,-4.7 1.25,0.62 1.25,-3.3 1.25,-4.01 1.25,2.62 1.25,0.32 1.25,-2.74 1.25,-3.08 1.25,2.68 1.25,0.72 1.25,0.01 1.25,5.23 1.25,-2.2 1.25,3.85 1.25,-0.38 1.25,-4.09 1.25,-1.29 1.25,-0.04 1.25,-0.08 1.25,0.06 1.25,1.87 1.25,4.16 1.25,2.98 1.26,2.71 1.25,4.64 1.25,2 1.25,-0.38 1.25,-2.42 1.25,3.59 1.25,-2.34 1.25,6.36 1.25,-1.5 1.25,-2.16 1.25,-7.5 1.25,-1.23 1.25,-0.73 1.25,-1.83 1.25,-2.98 1.25,-4.11 1.25,1.86 1.25,1.16 1.25,-2.03 1.25,-1.27 1.25,-4.08 1.25,3.86 1.25,0.53 1.25,-5.38 1.25,-0.92 1.26,1.91 1.25,2.72 1.25,7.46 1.25,-6.07 1.25,-2.14 1.25,-3.71 1.25,-4.69 1.25,2.24 1.25,-2.48 1.25,-6.74 1.25,5.05 1.25,-8.4 1.25,-2.32 1.25,-0.88 1.25,9.43 1.25,1.45 1.25,-7.41 1.25,0.92 1.25,-0.93 1.25,-13.81 1.25,-8.38 1.25,3 1.25,-5.12 1.25,-2.34 1.25,-3.53 1.26,-4.62 1.25,2.73 1.25,-3.14 1.25,-4.25 1.25,3.34 1.25,-8.22 1.25,-6.48 1.25,2.91 1.25,-2.63 1.25,-3.71 1.25,12.31 1.25,0.6 1.25,-11.26 1.25,7.91 1.25,-2.93 1.25,-2.98 1.25,-2.07 1.25,-0.94 1.25,8.44 1.25,2.22 1.25,4.47 1.25,-1.45 1.25,6.44 1.25,-0.53 1.26,3.96 1.25,2.36 1.25,5.59 1.25,5.63 1.25,0.74 1.25,2.23 1.25,4.08 1.25,4.3 1.25,1.4 1.25,5.87 1.25,-8.71 1.25,-8.09 1.25,9.16 1.25,-6.07 1.25,-5.01 1.25,18.73 1.25,-4.51 1.25,8.63 1.25,-10.28 1.25,6.44 1.25,-0.94 1.25,2.21 1.25,-3.39 1.25,-6.51 1.25,-13.46 1.26,-3.86 1.25,9.95 1.25,5.85 1.25,4.34 1.25,-2.7 1.25,-9.1 1.25,8.21 1.25,0.04 1.25,0.82 1.25,-11.29 1.25,14.92 1.25,-3.67 1.25,0.27 1.25,-6.49 1.25,-4.56 1.25,5.23 1.25,-16.52 1.25,3.4 1.25,-3.99 1.25,6.19 1.25,3.29 1.25,12.15 1.25,-20.75 1.25,14.19 1.25,-0.69 1.26,-2.99 1.25,5.93 1.25,12.79 1.25,6.86 1.25,8.33 1.25,-0.9 1.25,13.9 1.25,14.75 1.25,2.52"
             inkscape:connector-curvature="0" />
          <path
             id="path12053"
             style="fill:none;stroke:#3288bd;stroke-width:4.25;stroke-linecap:butt;stroke-linejoin:round;stroke-miterlimit:1;stroke-opacity:0.6;stroke-dasharray:none"
             d="m 26.73,150.88 1.25,0.02 1.25,-0.04 1.25,0.01 1.25,-0.38 1.25,0.27 1.25,0.07 1.25,0.23 1.25,-0.72 1.25,-0.09 1.25,-0.07 1.25,0.92 1.25,0.67 1.25,-0.55 1.25,0.69 1.25,-0.59 1.25,-1.16 1.25,-0.77 1.26,0.14 1.25,-0.49 1.25,0.28 1.25,-0.42 1.25,-0.1 1.25,-1.33 1.25,2.04 1.25,-1.82 1.25,0.09 1.25,0.46 1.25,-0.27 1.25,0.16 1.25,1.1 1.25,-0.38 1.25,-0.06 1.25,1 1.25,2.6 1.25,0.55 1.25,-2.87 1.25,0.46 1.25,0.76 1.25,0.08 1.25,-0.98 1.25,-0.25 1.26,1.14 1.25,0.08 1.25,-3.19 1.25,0.81 1.25,-2.2 1.25,-2.46 1.25,2.98 1.25,-0.5 1.25,-0.15 1.25,2.23 1.25,-4.63 1.25,1.14 1.25,0.95 1.25,-4.35 1.25,-1.79 1.25,1.59 1.25,2.14 1.25,0.8 1.25,1.87 1.25,3.09 1.25,0.91 1.25,0.9 1.25,-5.97 1.25,1.73 1.25,-4.56 1.26,1.1 1.25,-0.73 1.25,4.33 1.25,0.77 1.25,1.02 1.25,-4.02 1.25,0.67 1.25,8.54 1.25,-0.65 1.25,3.57 1.25,2.95 1.25,5.4 1.25,11.87 1.25,-0.79 1.25,2.88 1.25,2.03 1.25,4.55 1.25,-3.65 1.25,-0.01 1.25,0.92 1.25,-4.86 1.25,-2.59 1.25,-7.11 1.25,0.03 1.25,4.18 1.26,0.77 1.25,10.91 1.25,1.82 1.25,-5.08 1.25,-3.93 1.25,-0.3 1.25,-8.26 1.25,9.96 1.25,2.01 1.25,0.4 1.25,6.96 1.25,6.77 1.25,6.39 1.25,-0.68 1.25,11.48 1.25,0.59 1.25,5.33 1.25,-4.08 1.25,6.13 1.25,4.63 1.25,-1.47 1.25,-1.95 1.25,2.34 1.25,-2.34 1.25,3.56 1.26,0.77 1.25,-6.39 1.25,2.71 1.25,4.48 1.25,-6.5 1.25,-5.5 1.25,2.81 1.25,-0.05 1.25,5.59 1.25,2.97 1.25,-6.63 1.25,-2.75 1.25,4.84 1.25,-6.44 1.25,11.66 1.25,7.27 1.25,4.36 1.25,-0.27 1.25,-5.06 1.25,1.48 1.25,-9.61 1.25,6.1 1.25,-5.53 1.25,2.61 1.26,-6.01 1.25,-2.06 1.25,-4.25 1.25,5.17 1.25,-4.22 1.25,1.44 1.25,9.55 1.25,3.92 1.25,9.18 1.25,10.96 1.25,14.97 1.25,2.79 1.25,-2.49 1.25,5.67 1.25,-6.6 1.25,3.89 1.25,-0.46 1.25,-12.75 1.25,-2.47 1.25,-5.04 1.25,1.76 1.25,2.13 1.25,3.29 1.25,-4.99 1.25,5.37 1.26,-8.73 1.25,5.21 1.25,-1.29 1.25,-7.44 1.25,1.99 1.25,5.85 1.25,-7.04 1.25,-3.77 1.25,-7.95 1.25,-1.82 1.25,7.35 1.25,-6.2 1.25,2.01 1.25,-0.08 1.25,-0.34 1.25,-2.12 1.25,12.18 1.25,15.15 1.25,10.24 1.25,-7.54 1.25,-4.5 1.25,-3.96 1.25,8.74 1.25,8.67 1.25,-3.54 1.26,-2.65 1.25,3.8 1.25,5.93 1.25,0.68 1.25,-3.31 1.25,-4.99 1.25,-12.75 1.25,5.08 1.25,4.82"
             inkscape:connector-curvature="0" />
          <path
             id="path12055"
             style="fill:none;stroke:#3288bd;stroke-width:4.25;stroke-linecap:butt;stroke-linejoin:round;stroke-miterlimit:1;stroke-opacity:0.6;stroke-dasharray:none"
             d="m 26.73,150.88 1.25,-0.05 1.25,-0.02 1.25,-0.12 1.25,-0.1 1.25,0.1 1.25,0.31 1.25,0.1 1.25,-0.49 1.25,0.42 1.25,-0.87 1.25,0.7 1.25,-0.81 1.25,-0.02 1.25,-0.15 1.25,-0.65 1.25,0.88 1.25,-0.09 1.26,-0.24 1.25,0.59 1.25,0.18 1.25,-0.19 1.25,0.03 1.25,-1.32 1.25,-1.61 1.25,0.71 1.25,1.04 1.25,0.06 1.25,0.79 1.25,2.82 1.25,0.89 1.25,-1.19 1.25,-1.14 1.25,0.41 1.25,1.46 1.25,-0.8 1.25,-0.11 1.25,-2.83 1.25,0.52 1.25,0.34 1.25,2.65 1.25,0.41 1.26,3.16 1.25,-0.61 1.25,0.77 1.25,-1.7 1.25,1.14 1.25,-3.51 1.25,-3.46 1.25,2.46 1.25,-0.44 1.25,0.4 1.25,3.62 1.25,-0.57 1.25,1.89 1.25,0.3 1.25,-2.6 1.25,-1.33 1.25,-3.02 1.25,-3.66 1.25,5.71 1.25,2.32 1.25,-1.93 1.25,-0.33 1.25,-4.29 1.25,2.21 1.25,-5.26 1.26,1.48 1.25,2.91 1.25,3.94 1.25,-0.25 1.25,0.57 1.25,1.08 1.25,-3.62 1.25,-1.62 1.25,0.04 1.25,1.78 1.25,2.27 1.25,2.07 1.25,2.36 1.25,3.8 1.25,-2.82 1.25,1.17 1.25,-4.19 1.25,-5.53 1.25,0.77 1.25,-1.8 1.25,0.94 1.25,-0.65 1.25,-6.02 1.25,0.06 1.25,3.27 1.26,-1.96 1.25,-15.42 1.25,-0.25 1.25,11.22 1.25,-0.36 1.25,5.39 1.25,1.38 1.25,8.62 1.25,-3.24 1.25,-1.58 1.25,2.09 1.25,-7.26 1.25,1.71 1.25,-1.76 1.25,10.28 1.25,-3.42 1.25,-2.26 1.25,1.46 1.25,6.12 1.25,1.14 1.25,5.77 1.25,-5.18 1.25,-2.97 1.25,9.19 1.25,1.31 1.26,-5.85 1.25,-2.39 1.25,6.94 1.25,-1.92 1.25,-6.21 1.25,-13.67 1.25,12.14 1.25,6.66 1.25,8.74 1.25,-1.89 1.25,-4.94 1.25,3.8 1.25,2.42 1.25,5.96 1.25,2.62 1.25,11.29 1.25,5.99 1.25,12.19 1.25,6.14 1.25,6.88 1.25,0.08 1.25,3.31 1.25,-7.17 1.25,4.18 1.26,-15.03 1.25,-3.82 1.25,1.08 1.25,8.8 1.25,2.67 1.25,-9.47 1.25,-5.33 1.25,14.27 1.25,15.14 1.25,-3.5 1.25,-9.22 1.25,1.81 1.25,-7.9 1.25,3.01 1.25,9.95 1.25,0.82 1.25,6.12 1.25,-0.2 1.25,-6.91 1.25,-5.64 1.25,12.91 1.25,-2.42 1.25,7.13 1.25,4.3 1.25,-1.89 1.26,-9.73 1.25,6.7 1.25,1.66 1.25,-0.12 1.25,-5.92 1.25,-4.82 1.25,-1.99 1.25,-3.68 1.25,-12.38 1.25,2.33 1.25,-5.41 1.25,5.62 1.25,8.83 1.25,11.82 1.25,-12.43 1.25,-4.6 1.25,-0.96 1.25,-1.82 1.25,0.83 1.25,4.06 1.25,-3.87 1.25,29.96 1.25,-2.45 1.25,-5.83 1.25,1.35 1.26,3.99 1.25,-8.52 1.25,7.99 1.25,1.34 1.25,12.53 1.25,-4.23 1.25,-7.31 1.25,-19.15 1.25,1.69"
             inkscape:connector-curvature="0" />
        </g>
      </g>
      <g
         id="g12057" />
      <g
         id="g12059" />
      <g
         id="g12061" />
      <g
         id="g12063" />
      <g
         id="g12065" />
      <g
         id="g12067" />
      <g
         id="g12069" />
      <g
         id="g12071" />
      <g
         id="g12073" />
      <g
         id="g12075" />
      <g
         id="g12077" />
      <g
         id="g12079" />
      <g
         id="g12081" />
      <g
         id="g12083" />
      <g
         id="g12085" />
      <g
         id="g12087" />
      <g
         id="g12089" />
      <g
         id="g12091" />
      <g
         id="g12093" />
      <g
         id="g12095" />
      <g
         id="g12097" />
      <g
         id="g12099" />
      <g
         id="g12101" />
      <g
         id="g12103" />
    </g>
    <g
       id="g12160"
       transform="translate(-1.9450105,0)">
      <path
         inkscape:connector-curvature="0"
         id="path12152"
         d="m 399.65499,372.14877 c 0,77.32398 0,77.32398 0,77.32398"
         style="fill:none;stroke:#3288bd;stroke-width:2.19000006;stroke-linecap:butt;stroke-linejoin:miter;stroke-miterlimit:4;stroke-opacity:1;stroke-dasharray:none" />
      <path
         style="fill:none;stroke:#3288bd;stroke-width:2.19419527;stroke-linecap:butt;stroke-linejoin:miter;stroke-miterlimit:4;stroke-opacity:1;stroke-dasharray:none"
         d="m 482.42225,449.08338 c -83.07333,0 -83.07333,0 -83.07333,0"
         id="path12154"
         inkscape:connector-curvature="0" />
      <path
         inkscape:connector-curvature="0"
         id="path12156"
         d="m 403.95302,415.7153 75.54182,-26.8996 0,0"
         style="fill:none;stroke:#cdcd00;stroke-width:2.70814157;stroke-linecap:butt;stroke-linejoin:miter;stroke-miterlimit:4;stroke-opacity:1;stroke-dasharray:none" />
    </g>
    <flowRoot
       xml:space="preserve"
       id="flowRoot12165"
       style="font-size:12px;font-style:normal;font-variant:normal;font-weight:bold;font-stretch:normal;line-height:125%;letter-spacing:0px;word-spacing:0px;fill:#f46d43;fill-opacity:1;stroke:none;font-family:Cooper Hewitt;-inkscape-font-specification:Cooper Hewitt Bold"><flowRegion
         id="flowRegion12167"><rect
           id="rect12169"
           width="35.495674"
           height="28.9224"
           x="444.35324"
           y="406.20947"
           style="fill:#f46d43;fill-opacity:1" /></flowRegion><flowPara
         id="flowPara12171"
         style="font-style:oblique;-inkscape-font-specification:Latin Modern Sans Demi Cond Semi-Bold Oblique;font-family:Latin Modern Sans Demi Cond;font-weight:600;font-stretch:normal;font-variant:normal;font-size:24px;fill:#f46d43;fill-opacity:1">T<flowSpan
   style="font-size:65%;baseline-shift:sub"
   id="flowSpan12242">X</flowSpan></flowPara></flowRoot>    <g
       id="g12204">
      <path
         inkscape:connector-curvature="0"
         id="path12179"
         d="m 163.18474,305.12741 c -50.18061,0 -50.18061,0 -50.18061,0"
         style="fill:none;stroke:#3288bd;stroke-width:1.32540798;stroke-linecap:butt;stroke-linejoin:miter;stroke-miterlimit:4;stroke-opacity:1;stroke-dasharray:none" />
      <g
         id="g12188">
        <path
           inkscape:connector-curvature="0"
           id="path12177"
           d="m 113.18901,258.65491 c 0,46.7077 0,46.7077 0,46.7077"
           style="fill:none;stroke:#3288bd;stroke-width:1.32287383;stroke-linecap:butt;stroke-linejoin:miter;stroke-miterlimit:4;stroke-opacity:1;stroke-dasharray:none" />
        <path
           style="fill:none;stroke:#cdcd00;stroke-width:1.5;stroke-linecap:butt;stroke-linejoin:miter;stroke-opacity:1;stroke-miterlimit:4;stroke-dasharray:none"
           d="m 115.66158,280.68797 c 44.69826,0 44.69826,0 44.69826,0 l 0,0"
           id="path12186"
           inkscape:connector-curvature="0" />
      </g>
    </g>
    <g
       id="g12210"
       transform="translate(50.614191,-53.24351)">
      <path
         style="fill:none;stroke:#3288bd;stroke-width:1.32540798;stroke-linecap:butt;stroke-linejoin:miter;stroke-miterlimit:4;stroke-opacity:1;stroke-dasharray:none"
         d="m 163.18474,305.12741 c -50.18061,0 -50.18061,0 -50.18061,0"
         id="path12212"
         inkscape:connector-curvature="0" />
      <g
         id="g12214">
        <path
           style="fill:none;stroke:#3288bd;stroke-width:1.32287383;stroke-linecap:butt;stroke-linejoin:miter;stroke-miterlimit:4;stroke-opacity:1;stroke-dasharray:none"
           d="m 113.18901,258.65491 c 0,46.7077 0,46.7077 0,46.7077"
           id="path12216"
           inkscape:connector-curvature="0" />
        <path
           inkscape:connector-curvature="0"
           id="path12218"
           d="m 115.66158,280.68797 c 44.69826,0 44.69826,0 44.69826,0 l 0,0"
           style="fill:none;stroke:#cdcd00;stroke-width:1.5;stroke-linecap:butt;stroke-linejoin:miter;stroke-miterlimit:4;stroke-opacity:1;stroke-dasharray:none" />
      </g>
    </g>
    <g
       transform="translate(101.2284,0)"
       id="g12220">
      <path
         inkscape:connector-curvature="0"
         id="path12222"
         d="m 163.18474,305.12741 c -50.18061,0 -50.18061,0 -50.18061,0"
         style="fill:none;stroke:#3288bd;stroke-width:1.32540798;stroke-linecap:butt;stroke-linejoin:miter;stroke-miterlimit:4;stroke-opacity:1;stroke-dasharray:none" />
      <g
         id="g12224">
        <path
           inkscape:connector-curvature="0"
           id="path12226"
           d="m 113.18901,258.65491 c 0,46.7077 0,46.7077 0,46.7077"
           style="fill:none;stroke:#3288bd;stroke-width:1.32287383;stroke-linecap:butt;stroke-linejoin:miter;stroke-miterlimit:4;stroke-opacity:1;stroke-dasharray:none" />
        <path
           style="fill:none;stroke:#cdcd00;stroke-width:1.5;stroke-linecap:butt;stroke-linejoin:miter;stroke-miterlimit:4;stroke-opacity:1;stroke-dasharray:none"
           d="m 115.66158,280.68797 c 44.69826,0 44.69826,0 44.69826,0 l 0,0"
           id="path12228"
           inkscape:connector-curvature="0" />
      </g>
    </g>
    <flowRoot
       style="font-size:12px;font-style:normal;font-variant:normal;font-weight:bold;font-stretch:normal;line-height:125%;letter-spacing:0px;word-spacing:0px;fill:#f46d43;fill-opacity:1;stroke:none;font-family:Cooper Hewitt;-inkscape-font-specification:Cooper Hewitt Bold"
       id="flowRoot12230"
       xml:space="preserve"
       transform="translate(-270.77785,-142.64002)"><flowRegion
         id="flowRegion12232"><rect
           style="fill:#f46d43;fill-opacity:1"
           y="406.20947"
           x="444.35324"
           height="28.9224"
           width="35.495674"
           id="rect12234" /></flowRegion><flowPara
         style="font-size:24px;font-style:oblique;font-variant:normal;font-weight:600;font-stretch:normal;fill:#f46d43;fill-opacity:1;font-family:Latin Modern Sans Demi Cond;-inkscape-font-specification:Latin Modern Sans Demi Cond Semi-Bold Oblique"
         id="flowPara12236">T<flowSpan
   style="font-size:65.00091553%;baseline-shift:sub"
   id="flowSpan12240">Y</flowSpan></flowPara></flowRoot>    <g
       id="g12363"
       transform="translate(5.7553893,0)">
      <g
         transform="matrix(0.96797148,0,0,0.91945754,11.128796,13.805267)"
         id="g12328">
        <g
           transform="matrix(0.23284667,0,0,-0.20380819,204.91089,177.19158)"
           inkscape:label="sampledist2"
           id="g12290">
          <g
             id="g12292" />
          <g
             id="g12294" />
          <g
             id="g12296">
            <g
               clip-path="url(#clipPath12300)"
               id="g12298">
              <path
                 id="path12304"
                 style="fill:#3288bd;fill-opacity:1;fill-rule:nonzero;stroke:none"
                 d="m 157.09,46.08 0,51.2 0.62,0 0,22.25 8.98,0 0,26.97 8.98,0 0,39.82 8.98,0 0,32.34 8.98,0 0,42.85 8.98,0 0,49.92 8.98,0 0,40.46 8.98,0 0,42.62 8.98,0 0,27.38 8.98,0 0,26.74 8.98,0 0,9.28 8.98,0 0,10.57 8.98,0 0,-19.56 8.98,0 0,-33.8 8.98,0 0,-32.46 8.98,0 0,-40.58 8.98,0 0,-54.06 8.98,0 0,-29.25 8.98,0 0,-44.78 8.98,0 0,-43.38 8.98,0 0,-29.6 8.98,0 0,-25.86 7.73,0 0,-69.07 -196.93,0 z"
                 inkscape:connector-curvature="0" />
              <path
                 id="path12306"
                 style="fill:none;stroke:#3288bd;stroke-width:0.75;stroke-linecap:round;stroke-linejoin:round;stroke-miterlimit:10;stroke-opacity:1;stroke-dasharray:none"
                 d="m 32,46.08 0,0.06 8.98,0 0,-0.06 8.98,0 0,0.06 8.98,0 0,0.06 8.98,0 0,0.17 8.98,0 0,0.94 8.98,0 0,1.11 8.98,0 0,1.05 8.98,0 0,2.16 8.98,0 0,4.43 8.98,0 0,4.85 8.98,0 0,10.86 8.98,0 0,10.8 8.97,0 0,14.71 8.98,0 0,22.25 8.98,0 0,26.97 8.98,0 0,39.82 8.98,0 0,32.34 8.98,0 0,42.85 8.98,0 0,49.92 8.98,0 0,40.46 8.98,0 0,42.62 8.98,0 0,27.38 8.98,0 0,26.74 8.98,0 0,9.28 8.98,0 0,10.57 8.98,0 0,-19.56 8.98,0 0,-33.8 8.98,0 0,-32.46 8.98,0 0,-40.58 8.98,0 0,-54.06 8.98,0 0,-29.25 8.98,0 0,-44.78 8.98,0 0,-43.38 8.98,0 0,-29.6 8.98,0 0,-25.86 8.98,0 0,-20.32 8.97,0 0,-15.47 8.98,0 0,-12.26 8.98,0 0,-7.59 8.98,0 0,-4.91 8.98,0 0,-3.62 8.98,0 0,-1.46 8.98,0 0,-1.69 8.98,0 0,-0.64 8.98,0 0,-0.53 8.98,0 0,-0.35 8.98,0 0,-0.11 8.98,0 0,0 8.98,0 0,-0.12"
                 inkscape:connector-curvature="0" />
              <path
                 id="path12308"
                 style="fill:none;stroke:#3288bd;stroke-width:0.75;stroke-linecap:round;stroke-linejoin:round;stroke-miterlimit:10;stroke-opacity:1;stroke-dasharray:none"
                 d="m 157.09,30.24 196.93,0"
                 inkscape:connector-curvature="0" />
              <path
                 id="path12310"
                 style="fill:none;stroke:#3288bd;stroke-width:0.75;stroke-linecap:round;stroke-linejoin:round;stroke-miterlimit:10;stroke-opacity:1;stroke-dasharray:none"
                 d="m 157.09,31.68 0,-1.44 0,-1.44"
                 inkscape:connector-curvature="0" />
              <path
                 id="path12312"
                 style="fill:none;stroke:#3288bd;stroke-width:0.75;stroke-linecap:round;stroke-linejoin:round;stroke-miterlimit:10;stroke-opacity:1;stroke-dasharray:none"
                 d="m 354.02,28.8 0,1.44 0,1.44"
                 inkscape:connector-curvature="0" />
            </g>
          </g>
        </g>
        <path
           style="fill:none;stroke:#cdcd00;stroke-width:2;stroke-linecap:butt;stroke-linejoin:miter;stroke-miterlimit:4;stroke-opacity:1;stroke-dasharray:8, 2;stroke-dashoffset:0"
           d="m 300.48262,170.22897 0,-85.452545"
           id="path12326"
           inkscape:connector-curvature="0" />
      </g>
      <flowRoot
         style="font-size:12px;font-style:normal;font-variant:normal;font-weight:bold;font-stretch:normal;line-height:125%;letter-spacing:0px;word-spacing:0px;fill:#f46d43;fill-opacity:1;stroke:none;font-family:Cooper Hewitt;-inkscape-font-specification:Cooper Hewitt Bold"
         id="flowRoot12341"
         xml:space="preserve"
         transform="translate(-192.5559,-345.01276)"><flowRegion
           id="flowRegion12343"><rect
             style="fill:#f46d43;fill-opacity:1"
             y="406.20947"
             x="444.35324"
             height="28.9224"
             width="35.495674"
             id="rect12345" /></flowRegion><flowPara
           style="font-size:24px;font-style:oblique;font-variant:normal;font-weight:600;font-stretch:normal;fill:#f46d43;fill-opacity:1;font-family:Latin Modern Sans Demi Cond;-inkscape-font-specification:Latin Modern Sans Demi Cond Semi-Bold Oblique"
           id="flowPara12347">T<flowSpan
   style="font-size:65.00091553%;baseline-shift:sub"
   id="flowSpan12349">Y</flowSpan></flowPara></flowRoot>      <flowRoot
         transform="translate(-157.71756,-345.01276)"
         xml:space="preserve"
         id="flowRoot12351"
         style="font-size:12px;font-style:normal;font-variant:normal;font-weight:bold;font-stretch:normal;line-height:125%;letter-spacing:0px;word-spacing:0px;fill:#f46d43;fill-opacity:1;stroke:none;font-family:Cooper Hewitt;-inkscape-font-specification:Cooper Hewitt Bold"><flowRegion
           id="flowRegion12353"><rect
             id="rect12355"
             width="35.495674"
             height="28.9224"
             x="444.35324"
             y="406.20947"
             style="fill:#f46d43;fill-opacity:1" /></flowRegion><flowPara
           id="flowPara12357"
           style="font-size:24px;font-style:oblique;font-variant:normal;font-weight:600;font-stretch:normal;fill:#f46d43;fill-opacity:1;font-family:Latin Modern Sans Demi Cond;-inkscape-font-specification:Latin Modern Sans Demi Cond Semi-Bold Oblique">T<flowSpan
   id="flowSpan12361"
   style="font-size:65.00091553%;baseline-shift:sub">X</flowSpan></flowPara></flowRoot>    </g>
  </g>
</svg>
